<svg xmlns="http://www.w3.org/2000/svg" viewBox="0 0 192 192">
  <defs>
    <linearGradient id="paint0" x1="0" x2="1" y1="0" y2="1">
      <stop offset="0%" stop-color="#2563eb" />
      <stop offset="100%" stop-color="#0ea5e9" />
    </linearGradient>
  </defs>
  <rect width="192" height="192" rx="40" fill="url(#paint0)" />
  <path d="M56 76h80a8 8 0 0 1 8 8v44a8 8 0 0 1-8 8H56a8 8 0 0 1-8-8v-44a8 8 0 0 1 8-8Zm8 10v40h72V86H64Zm20-24h32a8 8 0 0 1 8 8v12H84V70a8 8 0 0 1 8-8Zm-8 66a8 8 0 1 0 0 16 8 8 0 0 0 0-16Z" fill="#fff" />
</svg>