<svg xmlns="http://www.w3.org/2000/svg" viewBox="0 0 512 512">
  <defs>
    <linearGradient id="paint0" x1="0" x2="1" y1="0" y2="1">
      <stop offset="0%" stop-color="#2563eb" />
      <stop offset="100%" stop-color="#0ea5e9" />
    </linearGradient>
  </defs>
  <rect width="512" height="512" rx="120" fill="url(#paint0)" />
  <path d="M148 196h216a22 22 0 0 1 22 22v120a22 22 0 0 1-22 22H148a22 22 0 0 1-22-22V218a22 22 0 0 1 22-22Zm22 26v108h172V222H170Zm50-50h96a22 22 0 0 1 22 22v24H198v-24a22 22 0 0 1 22-22Zm-22 204a22 22 0 1 0 0 44 22 22 0 0 0 0-44Z" fill="#fff" />
</svg>